<svg xmlns="http://www.w3.org/2000/svg" width="22" height="28" viewBox="0 0 22 28"><defs><clipPath id="s5fba"><path fill="#fff" d="M12.682 27.291l8.603-8.677a2.426 2.426 0 0 0 0-3.41 2.376 2.376 0 0 0-3.38 0l-4.523 4.565V2.407a2.4 2.4 0 0 0-2.39-2.41 2.4 2.4 0 0 0-2.39 2.41v17.362L4.08 15.204a2.376 2.376 0 0 0-3.38 0c-.466.472-.7 1.09-.7 1.705 0 .618.234 1.234.7 1.705l8.604 8.677a2.374 2.374 0 0 0 3.38 0z"/></clipPath></defs><g><g><path fill="#242428" d="M12.682 27.291l8.603-8.677a2.426 2.426 0 0 0 0-3.41 2.376 2.376 0 0 0-3.38 0l-4.523 4.565V2.407a2.4 2.4 0 0 0-2.39-2.41 2.4 2.4 0 0 0-2.39 2.41v17.362L4.08 15.204a2.376 2.376 0 0 0-3.38 0c-.466.472-.7 1.09-.7 1.705 0 .618.234 1.234.7 1.705l8.604 8.677a2.374 2.374 0 0 0 3.38 0z"/><path fill="none" stroke="#ffea98" stroke-dasharray="0 4" stroke-linecap="round" stroke-miterlimit="20" stroke-width="2" d="M12.682 27.291l8.603-8.677a2.426 2.426 0 0 0 0-3.41 2.376 2.376 0 0 0-3.38 0l-4.523 4.565v0V2.407a2.4 2.4 0 0 0-2.39-2.41 2.4 2.4 0 0 0-2.39 2.41v17.362L4.08 15.204a2.376 2.376 0 0 0-3.38 0c-.466.472-.7 1.09-.7 1.705 0 .618.234 1.234.7 1.705l8.604 8.677a2.374 2.374 0 0 0 3.38 0z" clip-path="url(&quot;#s5fba&quot;)"/></g></g></svg>