<svg xmlns="http://www.w3.org/2000/svg" width="16" height="16" viewBox="0 0 16 16"><defs><linearGradient id="gzxra" x1="7.92" x2="8.56" y1="15.19" y2=".64" gradientUnits="userSpaceOnUse"><stop offset="0" stop-color="#ff5238"/><stop offset="1" stop-color="#ff664a"/></linearGradient></defs><g><g><path fill="url(#gzxra)" d="M14.569 12.46h-1.35v2.275a.449.449 0 0 1-.768.32L9.883 12.46H4.797l-.768.778a.45.45 0 0 1-.768-.322v-2.273h-1.35c-.744 0-1.35-.612-1.35-1.365V2.005c0-.752.606-1.364 1.35-1.364h9.958c.744 0 1.35.612 1.35 1.364v.454h1.35c.744 0 1.35.612 1.35 1.364v7.274c0 .752-.606 1.363-1.35 1.363zm-2.25-10.455a.453.453 0 0 0-.45-.455H1.912a.453.453 0 0 0-.45.455v7.273c0 .25.201.455.45.455h1.8c.248 0 .449.203.449.455v1.63l1.931-1.95a.447.447 0 0 1 .318-.135h5.46c.247 0 .45-.204.45-.455zm2.7 1.818a.453.453 0 0 0-.45-.454h-1.35v5.91c0 .752-.606 1.364-1.35 1.364H6.597l-.9.91h4.373c.119 0 .233.046.318.132l1.931 1.952v-1.631c0-.25.201-.453.45-.453h1.8c.248 0 .45-.205.45-.456zm-4.05 2.273H2.811a.452.452 0 0 1-.45-.454c0-.251.202-.454.45-.454h8.158c.249 0 .45.203.45.454a.452.452 0 0 1-.45.454zm-1.8-1.818H2.812a.453.453 0 0 1-.45-.455c0-.251.202-.454.45-.454H9.17c.248 0 .45.203.45.454a.453.453 0 0 1-.45.455zM2.812 7.005h4.56c.248 0 .45.204.45.455a.453.453 0 0 1-.45.455H2.81a.453.453 0 0 1-.45-.455c0-.251.202-.455.45-.455z"/></g></g></svg>