<svg xmlns="http://www.w3.org/2000/svg" width="15" height="15" viewBox="0 0 15 15"><g><g><path fill="#b7b7c2" d="M8.1 14.859h-.912c-.739 0-1.34-.601-1.34-1.34v-.308a5.873 5.873 0 0 1-.912-.378l-.218.218a1.34 1.34 0 0 1-1.895 0l-.645-.646a1.338 1.338 0 0 1 0-1.893l.219-.22a5.842 5.842 0 0 1-.379-.911H1.71C.971 9.381.37 8.78.37 8.041V7.13c0-.739.601-1.34 1.34-1.34h.308c.1-.314.227-.619.379-.911l-.219-.219a1.34 1.34 0 0 1 0-1.895l.646-.645a1.339 1.339 0 0 1 1.894 0l.218.219c.294-.153.599-.278.912-.379V1.65c0-.738.601-1.34 1.34-1.34H8.1c.738 0 1.339.602 1.339 1.34v.31c.314.1.619.225.912.378l.219-.219a1.34 1.34 0 0 1 1.894 0l.646.645a1.34 1.34 0 0 1 0 1.895l-.22.219c.152.292.279.597.38.91h.308c.738 0 1.34.602 1.34 1.34v.913c0 .739-.602 1.34-1.34 1.34h-.309c-.1.314-.227.619-.378.912l.219.219c.53.53.515 1.378 0 1.893l-.646.646a1.34 1.34 0 0 1-1.894 0l-.219-.218a5.873 5.873 0 0 1-.912.378v.309c0 .738-.6 1.339-1.34 1.339zm-1.719-2.381c.188.049.32.218.32.412v.63c0 .268.218.487.487.487H8.1a.487.487 0 0 0 .487-.487v-.63c0-.194.131-.363.32-.412.456-.118.895-.3 1.302-.54.167-.1.38-.073.518.064l.446.446c.192.193.5.189.688.001l.646-.646a.486.486 0 0 0 0-.688l-.446-.447a.427.427 0 0 1-.066-.518c.241-.407.423-.845.541-1.301a.426.426 0 0 1 .413-.32h.63a.488.488 0 0 0 .486-.488V7.13a.488.488 0 0 0-.487-.488h-.63a.426.426 0 0 1-.412-.32 5.027 5.027 0 0 0-.54-1.302.427.427 0 0 1 .065-.518l.446-.445a.488.488 0 0 0 0-.69l-.646-.644a.486.486 0 0 0-.688 0l-.446.446a.425.425 0 0 1-.518.065 5.04 5.04 0 0 0-1.303-.54.425.425 0 0 1-.32-.413v-.63a.487.487 0 0 0-.486-.487h-.913a.488.488 0 0 0-.487.487v.63a.425.425 0 0 1-.32.412c-.457.118-.895.3-1.302.54a.426.426 0 0 1-.518-.064l-.446-.446a.485.485 0 0 0-.688 0l-.646.645a.487.487 0 0 0 0 .688l.446.446a.427.427 0 0 1 .065.518c-.24.407-.423.846-.54 1.303a.426.426 0 0 1-.413.32h-.63a.488.488 0 0 0-.486.487v.912c0 .27.218.488.486.488h.63c.194 0 .364.131.412.32.118.456.3.894.541 1.3a.427.427 0 0 1-.065.52l-.446.446a.487.487 0 0 0 0 .688l.645.645a.486.486 0 0 0 .689.001l.446-.447a.427.427 0 0 1 .518-.064c.407.24.845.422 1.302.54zm1.263-1.728A3.168 3.168 0 0 1 4.48 7.585 3.17 3.17 0 0 1 7.644 4.42a3.17 3.17 0 0 1 3.166 3.166 3.169 3.169 0 0 1-3.166 3.165zM5.331 7.585a2.315 2.315 0 0 0 2.313 2.313 2.315 2.315 0 0 0 2.313-2.313 2.316 2.316 0 0 0-2.313-2.314 2.316 2.316 0 0 0-2.313 2.314z"/></g></g></svg>