<svg xmlns="http://www.w3.org/2000/svg" width="16" height="14" viewBox="0 0 16 14"><g><g><path fill="#b7b7c2" d="M15.918 7.166h-.903v5.327c0 .851-.682 1.542-1.52 1.542H2.984c-.838 0-1.52-.691-1.52-1.542V7.166H.562V3.669c0-.85.682-1.542 1.52-1.542H5.08V1.64c0-.741.594-1.343 1.324-1.343h3.674c.73 0 1.325.602 1.325 1.343v.488h2.996c.838 0 1.52.692 1.52 1.542zM5.982 2.127h4.516V1.64a.425.425 0 0 0-.421-.428H6.403a.425.425 0 0 0-.421.428zm5.871 10.992v-2.29h-1.355v1.374h-.903V10.83H4.627v2.29zm2.259-5.953h-1.355v.457c0 .758-.608 1.374-1.355 1.374a1.366 1.366 0 0 1-1.355-1.374v-.457H6.433v.457c0 .758-.607 1.374-1.354 1.374a1.366 1.366 0 0 1-1.355-1.374v-.457H2.369v5.327c0 .345.276.626.617.626h.738V9.914h9.033v3.205h.737c.34 0 .618-.28.618-.626zm-9.033.915c.249 0 .451-.205.451-.458V6.25h-.903v1.374c0 .253.202.458.452.458zm6.323 0c.249 0 .451-.205.451-.458V6.25h-.903v1.374c0 .253.203.458.452.458zm3.613-4.412a.623.623 0 0 0-.617-.626H2.083a.623.623 0 0 0-.618.626v2.58h2.259v-.915h2.71v.915h3.613v-.915h2.71v.915h2.258z"/></g></g></svg>