<svg xmlns="http://www.w3.org/2000/svg" width="12" height="12" viewBox="0 0 12 12"><g><g><path fill="#7b519c" d="M11.996 5.339l-.003-.114C12.025 2.69 9.773.392 7.172.307c-.01 0-.021 0-.032.002a.22.22 0 0 1-.03.001c-.026 0-.058-.002-.092-.004C6.978.303 6.93.3 6.884.3 6.47.3 6.39.586 6.38.757c-.023.395.369.423.557.436.046.004.089.007.125.012 2.525.378 3.686 1.543 4.008 4.021.005.042.006.094.007.148.003.194.01.596.454.605h.014c.14 0 .25-.041.33-.122.138-.14.128-.35.12-.518zM6.758 3.52c-.05.142-.044.265.018.365.091.148.265.194.424.218.575.09.87.4.929.974.027.268.213.455.45.455a.461.461 0 0 0 .054-.003c.286-.033.425-.238.412-.608.005-.387-.203-.826-.557-1.175-.354-.351-.782-.549-1.17-.54-.147.004-.453.012-.56.314zm.363-.858c.048.007.094.013.132.021 1.538.335 2.055.86 2.308 2.345.007.037.01.081.012.129.011.177.034.546.442.546a.74.74 0 0 0 .108-.008c.38-.056.368-.394.362-.556a.781.781 0 0 1 .003-.14c.014-1.578-1.368-3.026-3.079-3.226l-.11-.016a1.635 1.635 0 0 0-.261-.028c-.35 0-.445.24-.47.383a.433.433 0 0 0 .069.348c.116.153.32.18.484.202zM4.307 5.708c-.232-.507-.157-.838.25-1.107.232-.153.663-.438.632-.983C5.155 3 3.752 1.137 3.161.925a1.18 1.18 0 0 0-.783-.002c-.679.222-1.167.613-1.41 1.13C.733 2.55.744 3.136 1 3.746c.737 1.762 1.774 3.299 3.08 4.567 1.28 1.24 2.852 2.257 4.674 3.021.164.07.337.107.462.134.043.01.08.017.107.025.015.004.03.006.046.006h.014c.857 0 1.886-.763 2.202-1.632.277-.76-.229-1.137-.635-1.44-.054-.04-.109-.08-.161-.121a15.42 15.42 0 0 0-.853-.608l-.176-.12c-.363-.249-.69-.37-.999-.37-.415 0-.778.224-1.077.665-.132.196-.293.29-.491.29a.998.998 0 0 1-.396-.096c-1.173-.518-2.01-1.312-2.49-2.36z"/></g></g></svg>