<svg xmlns="http://www.w3.org/2000/svg" width="15" height="11" viewBox="0 0 15 11"><defs><clipPath id="64kva"><path fill="#fff" d="M9.822 5.586L15 .961v9.142zM.34.3C.533.113.793 0 1.078 0h12.843c.288 0 .547.113.74.299L7.5 6.598zM0 10.103V.965l5.178 4.621zm7.5-2.405l1.856-1.667 5.303 4.668c-.193.186-.452.3-.738.3H1.078c-.287 0-.547-.114-.74-.3l5.306-4.668z"/></clipPath></defs><g><g><path fill="#b7b7c2" d="M9.822 5.586L15 .961v9.142zM.34.3C.533.113.793 0 1.078 0h12.843c.288 0 .547.113.74.299L7.5 6.598zM0 10.103V.965l5.178 4.621zm7.5-2.405l1.856-1.667 5.303 4.668c-.193.186-.452.3-.738.3H1.078c-.287 0-.547-.114-.74-.3l5.306-4.668z"/><path fill="none" stroke="#6c8bff" stroke-dasharray="0 4" stroke-linecap="round" stroke-miterlimit="20" stroke-width="2" d="M9.822 5.586L15 .961v9.142zM.34.3C.533.113.793 0 1.078 0h12.843c.288 0 .547.113.74.299L7.5 6.598zM0 10.103V.965l5.178 4.621zm7.5-2.405l1.856-1.667 5.303 4.668c-.193.186-.452.3-.738.3H1.078c-.287 0-.547-.114-.74-.3l5.306-4.668z" clip-path="url(&quot;#64kva&quot;)"/></g></g></svg>