<svg xmlns="http://www.w3.org/2000/svg" width="15" height="15" viewBox="0 0 15 15"><defs><clipPath id="ryyra"><path fill="#fff" d="M14.992 11.837a.726.726 0 0 1-.222.635l-2.113 2.098c-.095.105-.22.195-.373.27a1.592 1.592 0 0 1-.452.143c-.011 0-.043.002-.096.008a2.056 2.056 0 0 1-.206.008c-.201 0-.527-.035-.977-.104-.45-.068-1-.238-1.652-.508-.651-.27-1.39-.675-2.216-1.216-.825-.54-1.704-1.282-2.636-2.224A17.533 17.533 0 0 1 2.206 8.85a14.913 14.913 0 0 1-1.175-1.852 9.94 9.94 0 0 1-.667-1.542 8.133 8.133 0 0 1-.302-1.191A3.934 3.934 0 0 1 0 3.479c.01-.191.015-.297.015-.32.022-.147.07-.297.143-.45.075-.155.165-.279.27-.374L2.54.22A.702.702 0 0 1 3.048 0c.138 0 .26.04.365.118.106.08.196.18.27.294l1.7 3.227c.095.17.122.354.08.555a.988.988 0 0 1-.27.509l-.779.778a.266.266 0 0 0-.055.103.397.397 0 0 0-.024.12c.042.222.137.476.286.763.127.255.323.564.587.929.265.366.64.787 1.128 1.263.476.488.9.866 1.27 1.137.371.27.68.468.93.595.249.128.44.204.572.23l.198.04a.39.39 0 0 0 .103-.023.27.27 0 0 0 .104-.056l.905-.922a.976.976 0 0 1 .667-.254c.18 0 .323.033.429.097h.016l3.065 1.81c.223.137.355.313.397.525z"/></clipPath></defs><g><g><path fill="#b7b7c2" d="M14.992 11.837a.726.726 0 0 1-.222.635l-2.113 2.098c-.095.105-.22.195-.373.27a1.592 1.592 0 0 1-.452.143c-.011 0-.043.002-.096.008a2.056 2.056 0 0 1-.206.008c-.201 0-.527-.035-.977-.104-.45-.068-1-.238-1.652-.508-.651-.27-1.39-.675-2.216-1.216-.825-.54-1.704-1.282-2.636-2.224A17.533 17.533 0 0 1 2.206 8.85a14.913 14.913 0 0 1-1.175-1.852 9.94 9.94 0 0 1-.667-1.542 8.133 8.133 0 0 1-.302-1.191A3.934 3.934 0 0 1 0 3.479c.01-.191.015-.297.015-.32.022-.147.07-.297.143-.45.075-.155.165-.279.27-.374L2.54.22A.702.702 0 0 1 3.048 0c.138 0 .26.04.365.118.106.08.196.18.27.294l1.7 3.227c.095.17.122.354.08.555a.988.988 0 0 1-.27.509l-.779.778a.266.266 0 0 0-.055.103.397.397 0 0 0-.024.12c.042.222.137.476.286.763.127.255.323.564.587.929.265.366.64.787 1.128 1.263.476.488.9.866 1.27 1.137.371.27.68.468.93.595.249.128.44.204.572.23l.198.04a.39.39 0 0 0 .103-.023.27.27 0 0 0 .104-.056l.905-.922a.976.976 0 0 1 .667-.254c.18 0 .323.033.429.097h.016l3.065 1.81c.223.137.355.313.397.525z"/><path fill="none" stroke="#6c8bff" stroke-dasharray="0 4" stroke-linecap="round" stroke-miterlimit="20" stroke-width="2" d="M14.992 11.837a.726.726 0 0 1-.222.635l-2.113 2.098c-.095.105-.22.195-.373.27a1.592 1.592 0 0 1-.452.143c-.011 0-.043.002-.096.008a2.056 2.056 0 0 1-.206.008c-.201 0-.527-.035-.977-.104-.45-.068-1-.238-1.652-.508-.651-.27-1.39-.675-2.216-1.216-.825-.54-1.704-1.282-2.636-2.224A17.533 17.533 0 0 1 2.206 8.85a14.913 14.913 0 0 1-1.175-1.852 9.94 9.94 0 0 1-.667-1.542 8.133 8.133 0 0 1-.302-1.191A3.934 3.934 0 0 1 0 3.479c.01-.191.015-.297.015-.32.022-.147.07-.297.143-.45.075-.155.165-.279.27-.374L2.54.22A.702.702 0 0 1 3.048 0c.138 0 .26.04.365.118.106.08.196.18.27.294l1.7 3.227c.095.17.122.354.08.555a.988.988 0 0 1-.27.509l-.779.778a.266.266 0 0 0-.055.103.397.397 0 0 0-.024.12c.042.222.137.476.286.763.127.255.323.564.587.929.265.366.64.787 1.128 1.263.476.488.9.866 1.27 1.137.371.27.68.468.93.595.249.128.44.204.572.23l.198.04a.39.39 0 0 0 .103-.023.27.27 0 0 0 .104-.056l.905-.922a.976.976 0 0 1 .667-.254c.18 0 .323.033.429.097h.016v0l3.065 1.81c.223.137.355.313.397.525z" clip-path="url(&quot;#ryyra&quot;)"/></g></g></svg>