<svg xmlns="http://www.w3.org/2000/svg" width="23" height="14" viewBox="0 0 23 14"><g><g><path fill="#fff" d="M22.88 12.001a1.744 1.744 0 0 0-.077-.146c-.39-.7-1.135-1.558-2.236-2.577l-.023-.024-.012-.011-.011-.013h-.012c-.5-.474-.816-.793-.948-.957-.243-.31-.297-.625-.164-.944.093-.24.445-.751 1.053-1.527.32-.413.574-.743.761-.993 1.35-1.789 1.936-2.931 1.756-3.428l-.07-.117c-.047-.07-.168-.135-.363-.193-.195-.059-.444-.067-.749-.03l-3.37.024a.433.433 0 0 0-.235.006l-.152.035-.06.03-.046.034a.528.528 0 0 0-.128.123.769.769 0 0 0-.117.204 19.002 19.002 0 0 1-1.253 2.625c-.289.482-.554.9-.796 1.254a6.031 6.031 0 0 1-.608.781 4.146 4.146 0 0 1-.445.402c-.133.101-.234.144-.304.129l-.2-.047a.779.779 0 0 1-.263-.286 1.27 1.27 0 0 1-.135-.454 4.999 4.999 0 0 1-.04-.472 9.862 9.862 0 0 1 .005-.562c.008-.241.012-.403.012-.489 0-.295.006-.616.017-.962l.03-.822c.007-.203.011-.418.011-.643 0-.226-.013-.402-.04-.529a1.826 1.826 0 0 0-.123-.375.638.638 0 0 0-.24-.28 1.362 1.362 0 0 0-.392-.157c-.414-.094-.94-.144-1.58-.152C9.88.442 8.947.536 8.534.738a1.563 1.563 0 0 0-.445.35c-.14.171-.16.265-.059.281.469.069.8.237.995.502l.07.14c.055.1.11.278.165.536.054.255.09.541.105.852a9.044 9.044 0 0 1 0 1.457c-.04.404-.076.72-.112.946a1.895 1.895 0 0 1-.298.804.252.252 0 0 1-.059.06.905.905 0 0 1-.316.057c-.109 0-.242-.055-.398-.164a2.789 2.789 0 0 1-.485-.45 5.915 5.915 0 0 1-.568-.797c-.21-.344-.43-.747-.656-1.215l-.187-.338a28.362 28.362 0 0 1-.48-.95 18.252 18.252 0 0 1-.538-1.207.758.758 0 0 0-.281-.373l-.059-.035a.796.796 0 0 0-.187-.1 1.297 1.297 0 0 0-.269-.076l-3.207.023c-.328 0-.55.074-.668.223l-.046.068a.384.384 0 0 0-.036.187c0 .087.024.192.07.317a38.71 38.71 0 0 0 1.528 3.172c.55 1.018 1.028 1.84 1.434 2.46.406.622.82 1.21 1.24 1.762.422.552.701.907.838 1.062.136.156.244.272.322.35l.292.28c.188.187.463.41.825.67.364.26.765.518 1.206.77.441.253.954.46 1.54.62a5.328 5.328 0 0 0 1.709.19h1.346c.273-.021.48-.108.62-.255l.047-.059a.793.793 0 0 0 .087-.214c.028-.1.041-.206.041-.322a3.833 3.833 0 0 1 .076-.904c.059-.268.125-.47.2-.606a1.499 1.499 0 0 1 .45-.514.975.975 0 0 1 .094-.041c.187-.062.407-.002.661.18.254.184.492.41.714.678.223.269.49.569.802.904.312.335.586.583.82.746l.233.141c.157.092.36.178.61.256.249.078.467.098.655.058l2.996-.047c.297 0 .527-.048.691-.145.164-.097.261-.204.293-.32a.91.91 0 0 0 .006-.399 1.452 1.452 0 0 0-.083-.308z"/></g></g></svg>