<svg xmlns="http://www.w3.org/2000/svg" width="15" height="9" viewBox="0 0 15 9"><g><g><path fill="#fff" d="M14.863 8.044a.917.917 0 0 0-.05-.093c-.252-.451-.734-1.004-1.446-1.662l-.015-.015-.008-.006-.007-.009h-.008a8.387 8.387 0 0 1-.613-.616c-.157-.2-.192-.404-.107-.61.061-.154.289-.483.682-.983.207-.267.371-.48.492-.64.874-1.152 1.253-1.89 1.137-2.21l-.046-.075c-.03-.045-.108-.086-.234-.124a1.198 1.198 0 0 0-.485-.019l-2.181.016a.29.29 0 0 0-.152.003l-.098.023-.038.019-.03.022a.494.494 0 0 0-.159.21c-.238.607-.508 1.17-.81 1.692-.188.31-.36.58-.516.808-.156.23-.288.396-.394.503a2.698 2.698 0 0 1-.288.26c-.085.065-.151.093-.196.082a5.325 5.325 0 0 1-.13-.029.515.515 0 0 1-.17-.184.827.827 0 0 1-.087-.294 3.203 3.203 0 0 1-.023-.666c.006-.155.008-.26.008-.315 0-.19.004-.397.011-.62.008-.224.014-.399.02-.53.004-.13.007-.268.007-.414 0-.145-.009-.26-.027-.341a1.136 1.136 0 0 0-.08-.24.403.403 0 0 0-.154-.182.89.89 0 0 0-.254-.102A5.06 5.06 0 0 0 7.39.607c-.939-.01-1.542.05-1.81.18-.106.056-.202.13-.288.225-.09.11-.103.17-.038.18.303.045.518.153.644.323l.046.091c.035.065.07.18.106.346.035.165.058.348.068.548.025.367.025.68 0 .94-.025.26-.05.464-.072.61a1.214 1.214 0 0 1-.193.517c-.015.02-.028.034-.038.038a.548.548 0 0 1-.205.038c-.07 0-.156-.035-.257-.106a1.787 1.787 0 0 1-.314-.288 3.91 3.91 0 0 1-.368-.516 9.21 9.21 0 0 1-.424-.78l-.121-.219c-.076-.14-.18-.345-.31-.613a11.722 11.722 0 0 1-.35-.778.503.503 0 0 0-.18-.242l-.039-.022a.55.55 0 0 0-.12-.063.706.706 0 0 0-.175-.048L.878.982c-.213 0-.356.047-.432.142l-.03.046a.242.242 0 0 0-.023.12.6.6 0 0 0 .045.203c.303.707.633 1.39.989 2.045.356.657.665 1.184.927 1.586.263.402.53.78.803 1.135.273.357.453.583.542.685.088.1.158.175.208.225l.19.18c.12.12.299.266.534.433.234.167.494.332.78.496.285.163.617.296.996.398.378.103.747.145 1.105.123h.872c.176-.014.31-.068.401-.164l.03-.038a.49.49 0 0 0 .057-.14.754.754 0 0 0 .026-.205c-.005-.216.012-.41.05-.583.037-.173.08-.303.128-.391a.967.967 0 0 1 .292-.33c.025-.013.045-.022.06-.027.122-.041.264-.001.429.117.164.118.318.262.462.436.144.173.317.367.519.583.202.215.378.375.53.48l.151.09c.101.06.233.117.394.166.161.05.303.063.424.037l1.94-.03c.19 0 .34-.032.446-.093.106-.063.169-.133.19-.208a.574.574 0 0 0 .003-.255.957.957 0 0 0-.053-.2z"/></g></g></svg>