<svg xmlns="http://www.w3.org/2000/svg" width="13" height="14" viewBox="0 0 13 14"><g><g><path fill="#fff" d="M12.508 6.901c0 3.472-2.827 6.322-6.273 6.322a6.2 6.2 0 0 1-3.213-.895l-3.06.895.888-3.085a6.316 6.316 0 0 1-.888-3.237c0-3.474 2.827-6.323 6.273-6.323 3.446 0 6.273 2.849 6.273 6.323zm-2.35 2.083L8.99 7.807a.43.43 0 0 0-.584 0l-.292.295a.822.822 0 0 1-1.168 0L5.018 6.183a.838.838 0 0 1 0-1.176l.292-.295a.412.412 0 0 0 .12-.295.415.415 0 0 0-.12-.293L4.142 2.946a.412.412 0 0 0-.583 0l-.292.296c-.327.328-.451 1.19-.225 2.18.456 2.003 2.821 4.313 4.85 4.709.61.118 1.56.152 1.973-.265l.292-.295a.417.417 0 0 0 0-.588z"/></g></g></svg>