<svg xmlns="http://www.w3.org/2000/svg" width="44" height="26" viewBox="0 0 44 26"><g><g><path fill="#fff" d="M43.59 23.139a2.943 2.943 0 0 0-.148-.283c-.757-1.354-2.204-3.014-4.34-4.985l-.045-.045-.023-.023-.023-.022h-.023c-.97-.918-1.583-1.533-1.84-1.849-.47-.602-.576-1.21-.319-1.828.182-.466.864-1.45 2.045-2.953.622-.798 1.114-1.436 1.477-1.918 2.62-3.457 3.757-5.668 3.409-6.63l-.136-.225c-.09-.135-.325-.26-.704-.372-.379-.112-.863-.131-1.454-.056l-6.545.045c-.105-.039-.257-.035-.454.011-.197.045-.295.069-.295.069l-.114.055-.09.068c-.077.045-.16.123-.25.237-.091.112-.167.244-.227.394a36.701 36.701 0 0 1-2.432 5.075c-.56.932-1.075 1.74-1.545 2.425-.47.683-.864 1.187-1.182 1.51a8.229 8.229 0 0 1-.863.779c-.258.194-.455.278-.59.247a15.74 15.74 0 0 1-.387-.09 1.503 1.503 0 0 1-.511-.553c-.13-.233-.216-.527-.262-.879a9.647 9.647 0 0 1-.08-.914c-.007-.255-.003-.616.012-1.083.016-.465.023-.78.023-.946 0-.572.011-1.193.034-1.861.023-.67.041-1.2.057-1.59.015-.392.022-.805.022-1.241 0-.436-.027-.777-.08-1.026a3.488 3.488 0 0 0-.237-.722 1.222 1.222 0 0 0-.466-.541 2.623 2.623 0 0 0-.761-.304C23.44.934 22.417.837 21.175.82c-2.818-.03-4.628.151-5.431.542-.318.165-.606.39-.863.676-.273.332-.311.512-.114.542.909.134 1.552.457 1.931.969l.137.271c.106.196.212.542.318 1.037.106.497.174 1.046.204 1.647.076 1.097.076 2.037 0 2.818a33.533 33.533 0 0 1-.216 1.829c-.068.435-.17.787-.306 1.059-.137.27-.228.435-.273.495a.372.372 0 0 1-.114.113 1.693 1.693 0 0 1-.613.113c-.213 0-.47-.105-.773-.315a5.45 5.45 0 0 1-.943-.869c-.325-.368-.693-.883-1.102-1.545a26.794 26.794 0 0 1-1.272-2.345l-.364-.655a55.942 55.942 0 0 1-.931-1.838 35.152 35.152 0 0 1-1.045-2.334 1.489 1.489 0 0 0-.546-.722l-.114-.067a1.535 1.535 0 0 0-.363-.192 2.451 2.451 0 0 0-.523-.147l-6.226.045c-.636 0-1.068.144-1.295.43l-.09.134c-.046.075-.07.195-.07.362 0 .164.046.368.137.609A74.264 74.264 0 0 0 3.28 9.616c1.069 1.97 1.996 3.557 2.784 4.76a56.294 56.294 0 0 0 2.409 3.405c.818 1.067 1.36 1.75 1.624 2.052.265.3.474.527.625.676l.568.541c.364.362.898.794 1.602 1.297a27.196 27.196 0 0 0 2.34 1.49c.857.488 1.852.886 2.989 1.194 1.136.31 2.242.433 3.317.373h2.613c.53-.046.932-.211 1.205-.497l.09-.113c.061-.09.118-.228.17-.416.053-.188.08-.395.08-.621a7.387 7.387 0 0 1 .147-1.748c.114-.518.243-.909.387-1.171.144-.264.307-.486.488-.665.182-.181.311-.291.387-.328.076-.037.136-.063.181-.079.364-.12.792-.004 1.285.35.492.354.954.79 1.386 1.309.432.518.95 1.1 1.556 1.747.607.647 1.136 1.127 1.59 1.442l.455.272c.304.18.697.346 1.182.496.484.15.908.188 1.272.113l5.817-.09c.575 0 1.023-.095 1.34-.283.319-.186.508-.393.569-.62.06-.226.064-.48.011-.767-.053-.285-.107-.485-.16-.596z"/></g></g></svg>