<svg xmlns="http://www.w3.org/2000/svg" width="39" height="39" viewBox="0 0 39 39"><g><g><path fill="#fff" d="M38.526 19.704c0 10.418-8.483 18.969-18.82 18.969-3.412 0-6.733-.927-9.639-2.684L.885 38.673l2.665-9.255a18.95 18.95 0 0 1-2.665-9.714C.885 9.284 9.37.737 19.705.737c10.338 0 18.82 8.548 18.82 18.967zm-7.054 6.248l-3.502-3.527c-.455-.462-1.3-.458-1.752 0l-.875.882a2.463 2.463 0 0 1-3.504 0l-5.784-5.754a2.514 2.514 0 0 1 0-3.53l.875-.885c.234-.236.362-.545.362-.881 0-.333-.128-.647-.362-.883l-3.503-3.53a1.23 1.23 0 0 0-1.75 0l-.877.881c-.978.99-1.352 3.574-.675 6.549 1.369 6.003 8.466 12.936 14.553 14.121 1.83.356 4.68.456 5.919-.795l.875-.881a1.255 1.255 0 0 0 0-1.767z"/></g></g></svg>