<svg xmlns="http://www.w3.org/2000/svg" width="25" height="23" viewBox="0 0 25 23"><defs><linearGradient id="70kfa" x1="12.67" x2="12.69" y1="22.92" y2=".65" gradientUnits="userSpaceOnUse"><stop offset="0" stop-color="#ff5238"/><stop offset="1" stop-color="#ff664a"/></linearGradient><clipPath id="70kfb"><path fill="#fff" d="M23.916 11.024h-9.742V8.052h-2.997v2.972H1.435a.747.747 0 0 1-.75-.743v-2.23c0-.818.673-1.486 1.499-1.486h4.742c-.34-.23-.632-.459-.838-.664a3.093 3.093 0 0 1 .002-4.373c1.173-1.171 3.22-1.171 4.396 0 .649.646 2.372 3.279 2.136 5.037h.107c-.238-1.758 1.486-4.39 2.136-5.037 1.174-1.171 3.221-1.174 4.396 0a3.089 3.089 0 0 1 0 4.373 5.808 5.808 0 0 1-.836.664h4.742c.827 0 1.499.668 1.499 1.487v2.23c0 .41-.336.742-.75.742zM9.423 2.576a1.598 1.598 0 0 0-1.135-.47c-.428 0-.831.166-1.136.47a1.612 1.612 0 0 0 0 2.277c.646.645 2.623 1.712 3.659 1.712.214 0 .277-.049.277-.049.35-.358-.655-2.932-1.665-3.94zm8.775 0c-.61-.608-1.666-.605-2.27 0-1.01 1.008-2.015 3.582-1.665 3.94 0 .002.063.05.275.05 1.038 0 3.015-1.068 3.66-1.713.63-.627.63-1.65 0-2.277zm-7.021 20.34H3.683a1.494 1.494 0 0 1-1.499-1.487v-8.918h8.993zm11.99-1.487c0 .82-.672 1.487-1.499 1.487h-7.494V12.51h8.993z"/></clipPath></defs><g><g><path fill="url(#70kfa)" d="M23.916 11.024h-9.742V8.052h-2.997v2.972H1.435a.747.747 0 0 1-.75-.743v-2.23c0-.818.673-1.486 1.499-1.486h4.742c-.34-.23-.632-.459-.838-.664a3.093 3.093 0 0 1 .002-4.373c1.173-1.171 3.22-1.171 4.396 0 .649.646 2.372 3.279 2.136 5.037h.107c-.238-1.758 1.486-4.39 2.136-5.037 1.174-1.171 3.221-1.174 4.396 0a3.089 3.089 0 0 1 0 4.373 5.808 5.808 0 0 1-.836.664h4.742c.827 0 1.499.668 1.499 1.487v2.23c0 .41-.336.742-.75.742zM9.423 2.576a1.598 1.598 0 0 0-1.135-.47c-.428 0-.831.166-1.136.47a1.612 1.612 0 0 0 0 2.277c.646.645 2.623 1.712 3.659 1.712.214 0 .277-.049.277-.049.35-.358-.655-2.932-1.665-3.94zm8.775 0c-.61-.608-1.666-.605-2.27 0-1.01 1.008-2.015 3.582-1.665 3.94 0 .002.063.05.275.05 1.038 0 3.015-1.068 3.66-1.713.63-.627.63-1.65 0-2.277zm-7.021 20.34H3.683a1.494 1.494 0 0 1-1.499-1.487v-8.918h8.993zm11.99-1.487c0 .82-.672 1.487-1.499 1.487h-7.494V12.51h8.993z"/><path fill="none" stroke="#fff" stroke-miterlimit="20" d="M23.916 11.024h-9.742V8.052h-2.997v2.972H1.435a.747.747 0 0 1-.75-.743v-2.23c0-.818.673-1.486 1.499-1.486h4.742c-.34-.23-.632-.459-.838-.664a3.093 3.093 0 0 1 .002-4.373c1.173-1.171 3.22-1.171 4.396 0 .649.646 2.372 3.279 2.136 5.037h.107c-.238-1.758 1.486-4.39 2.136-5.037 1.174-1.171 3.221-1.174 4.396 0a3.089 3.089 0 0 1 0 4.373 5.808 5.808 0 0 1-.836.664h4.742c.827 0 1.499.668 1.499 1.487v2.23c0 .41-.336.742-.75.742zM9.423 2.576a1.598 1.598 0 0 0-1.135-.47c-.428 0-.831.166-1.136.47a1.612 1.612 0 0 0 0 2.277c.646.645 2.623 1.712 3.659 1.712.214 0 .277-.049.277-.049.35-.358-.655-2.932-1.665-3.94zm8.775 0c-.61-.608-1.666-.605-2.27 0-1.01 1.008-2.015 3.582-1.665 3.94 0 .002.063.05.275.05 1.038 0 3.015-1.068 3.66-1.713.63-.627.63-1.65 0-2.277zm-7.021 20.34H3.683a1.494 1.494 0 0 1-1.499-1.487v-8.918h8.993zm11.99-1.487c0 .82-.672 1.487-1.499 1.487h-7.494V12.51h8.993z" clip-path="url(&quot;#70kfb&quot;)"/></g></g></svg>