<svg xmlns="http://www.w3.org/2000/svg" width="22" height="28" viewBox="0 0 22 28"><defs><clipPath id="puava"><path fill="#fff" d="M12.682 27.291l8.603-8.676a2.426 2.426 0 0 0 0-3.41 2.376 2.376 0 0 0-3.38 0l-4.523 4.563V2.408a2.4 2.4 0 0 0-2.39-2.41 2.4 2.4 0 0 0-2.39 2.41v17.36L4.08 15.205a2.376 2.376 0 0 0-3.38 0A2.416 2.416 0 0 0 0 16.91c0 .618.234 1.233.7 1.705l8.604 8.676a2.373 2.373 0 0 0 3.38 0z"/></clipPath></defs><g><g><path fill="#f2f2fa" d="M12.682 27.291l8.603-8.676a2.426 2.426 0 0 0 0-3.41 2.376 2.376 0 0 0-3.38 0l-4.523 4.563V2.408a2.4 2.4 0 0 0-2.39-2.41 2.4 2.4 0 0 0-2.39 2.41v17.36L4.08 15.205a2.376 2.376 0 0 0-3.38 0A2.416 2.416 0 0 0 0 16.91c0 .618.234 1.233.7 1.705l8.604 8.676a2.373 2.373 0 0 0 3.38 0z"/><path fill="none" stroke="#ffea98" stroke-dasharray="0 4" stroke-linecap="round" stroke-miterlimit="20" stroke-width="2" d="M12.682 27.291l8.603-8.676a2.426 2.426 0 0 0 0-3.41 2.376 2.376 0 0 0-3.38 0l-4.523 4.563v0-17.36a2.4 2.4 0 0 0-2.39-2.41 2.4 2.4 0 0 0-2.39 2.41v17.36L4.08 15.205a2.376 2.376 0 0 0-3.38 0A2.416 2.416 0 0 0 0 16.91c0 .618.234 1.233.7 1.705l8.604 8.676a2.373 2.373 0 0 0 3.38 0z" clip-path="url(&quot;#puava&quot;)"/></g></g></svg>