<svg xmlns="http://www.w3.org/2000/svg" width="9" height="13" viewBox="0 0 9 13"><g><g><path fill="#ffea98" d="M.468 10.995l.998-2.058a.82.82 0 0 1 1.113-.36l1.015.515.122-.136c.389-.437.922-1.034 1.379-1.977.458-.945.6-1.742.705-2.324l.032-.178-.68-.345-.335-.17a.855.855 0 0 1-.394-1.124L5.42.78A.818.818 0 0 1 6.534.42l.568.29-.007.017c.203.137.393.31.557.51.155.192.275.384.367.586.755 1.618.51 3.418-.843 6.21-1.872 3.86-4.221 4.425-4.323 4.447a2.583 2.583 0 0 1-1.412-.088l-.007.012-.572-.284a.856.856 0 0 1-.394-1.125z"/></g></g></svg>