<svg xmlns="http://www.w3.org/2000/svg" width="14" height="19" viewBox="0 0 14 19"><defs><mask id="bg4ob" width="2" height="2" x="-1" y="-1"><path fill="#fff" d="M0 0h14v18H0z"/><path d="M13.163 10.611l-10.21 7.055a1.865 1.865 0 0 1-1.949.104A1.953 1.953 0 0 1 0 16.05V1.944C0 1.224.386.564 1.004.226A1.853 1.853 0 0 1 2.953.33l10.21 7.054c.523.361.837.968.837 1.615 0 .649-.314 1.253-.837 1.613z"/></mask><filter id="bg4oa" width="34" height="39" x="-10" y="-10" filterUnits="userSpaceOnUse"><feOffset dy="1" in="SourceGraphic" result="FeOffset1023Out"/><feGaussianBlur in="FeOffset1023Out" result="FeGaussianBlur1024Out" stdDeviation="0 0"/></filter><linearGradient id="bg4oc" x1="7" x2="7" y1="18" y2="0" gradientUnits="userSpaceOnUse"><stop offset="0" stop-color="#ff5238"/><stop offset="1" stop-color="#ff664a"/></linearGradient></defs><g><g><g filter="url(#bg4oa)"><path fill="none" d="M13.163 10.611l-10.21 7.055a1.865 1.865 0 0 1-1.949.104A1.953 1.953 0 0 1 0 16.05V1.944C0 1.224.386.564 1.004.226A1.853 1.853 0 0 1 2.953.33l10.21 7.054c.523.361.837.968.837 1.615 0 .649-.314 1.253-.837 1.613z" mask="url(&quot;#bg4ob&quot;)"/><path fill="#8d3427" d="M13.163 10.611l-10.21 7.055a1.865 1.865 0 0 1-1.949.104A1.953 1.953 0 0 1 0 16.05V1.944C0 1.224.386.564 1.004.226A1.853 1.853 0 0 1 2.953.33l10.21 7.054c.523.361.837.968.837 1.615 0 .649-.314 1.253-.837 1.613z"/></g><path fill="url(#bg4oc)" d="M13.163 10.611l-10.21 7.055a1.865 1.865 0 0 1-1.949.104A1.953 1.953 0 0 1 0 16.05V1.944C0 1.224.386.564 1.004.226A1.853 1.853 0 0 1 2.953.33l10.21 7.054c.523.361.837.968.837 1.615 0 .649-.314 1.253-.837 1.613z"/></g></g></svg>