<svg xmlns="http://www.w3.org/2000/svg" width="15" height="15" viewBox="0 0 15 15"><g><g><path fill="#40c02d" d="M14.73 7.124c0 3.913-3.148 7.125-6.982 7.125a6.828 6.828 0 0 1-3.576-1.01L.766 14.25l.989-3.477a7.184 7.184 0 0 1-.989-3.648c0-3.914 3.147-7.125 6.982-7.125 3.834 0 6.981 3.21 6.981 7.125zM12.111 9.47l-1.299-1.326a.471.471 0 0 0-.65 0l-.324.331a.905.905 0 0 1-1.3 0L6.394 6.315a.953.953 0 0 1 0-1.326l.324-.333a.465.465 0 0 0 .134-.33.47.47 0 0 0-.134-.332l-1.3-1.326a.454.454 0 0 0-.649 0L4.444 3c-.363.37-.501 1.342-.25 2.459.508 2.255 3.14 4.86 5.398 5.305.68.133 1.736.17 2.196-.299l.324-.33a.475.475 0 0 0 0-.664z"/></g></g></svg>