<svg xmlns="http://www.w3.org/2000/svg" width="40" height="40" viewBox="0 0 40 40"><defs><mask id="3letb" width="2" height="2" x="-1" y="-1"><path fill="#fff" d="M15 15h9v9h-9z"/><path d="M19.5 15a4.5 4.5 0 1 1 .001 8.999 4.5 4.5 0 0 1-.001-9z"/></mask><filter id="3leta" width="65" height="65" x="-13" y="-13" filterUnits="userSpaceOnUse"><feOffset in="SourceGraphic" result="FeOffset1030Out"/><feGaussianBlur in="FeOffset1030Out" result="FeGaussianBlur1031Out" stdDeviation="7.2 7.2"/></filter><clipPath id="3letc"><path fill="#fff" d="M19.5 15a4.5 4.5 0 1 1 .001 8.999 4.5 4.5 0 0 1-.001-9z"/></clipPath></defs><g><g><g filter="url(#3leta)"><path fill="none" d="M19.5 15a4.5 4.5 0 1 1 .001 8.999 4.5 4.5 0 0 1-.001-9z" mask="url(&quot;#3letb&quot;)"/><path fill="#40c02d" d="M19.5 15a4.5 4.5 0 1 1 .001 8.999 4.5 4.5 0 0 1-.001-9z"/></g><path fill="#40c02d" d="M19.5 15a4.5 4.5 0 1 1 .001 8.999 4.5 4.5 0 0 1-.001-9z"/><path fill="none" stroke="#fff" stroke-miterlimit="20" d="M19.5 15a4.5 4.5 0 1 1 .001 8.999 4.5 4.5 0 0 1-.001-9z" clip-path="url(&quot;#3letc&quot;)"/></g></g></svg>