<svg xmlns="http://www.w3.org/2000/svg" width="76" height="76" viewBox="0 0 76 76"><defs><mask id="3lhab" width="2" height="2" x="-1" y="-1"><path fill="#fff" d="M21 14h34v28H21z"/><path d="M25.84 13.998h24.32c1.909 0 3.457 1.253 3.457 2.8 0 0 1.383 6.016 1.383 11.812 0 5.388-1.383 10.588-1.383 10.588 0 1.546-1.548 2.8-3.457 2.8H25.84c-1.91 0-3.457-1.254-3.457-2.8 0 0-1.383-5.338-1.383-10.8 0-5.73 1.383-11.6 1.383-11.6 0-1.547 1.548-2.8 3.457-2.8z"/></mask><filter id="3lhaa" width="124" height="128" x="-24" y="-31" filterUnits="userSpaceOnUse"><feOffset dy="10" in="SourceGraphic" result="FeOffset1034Out"/><feGaussianBlur in="FeOffset1034Out" result="FeGaussianBlur1035Out" stdDeviation="14 14"/></filter><linearGradient id="3lhac" x1="38" x2="38" y1="14" y2="42" gradientUnits="userSpaceOnUse"><stop offset="0" stop-color="#fff" stop-opacity=".36"/><stop offset="1" stop-color="#fff" stop-opacity="0"/></linearGradient></defs><g><g><g filter="url(#3lhaa)"><path fill="none" d="M25.84 13.998h24.32c1.909 0 3.457 1.253 3.457 2.8 0 0 1.383 6.016 1.383 11.812 0 5.388-1.383 10.588-1.383 10.588 0 1.546-1.548 2.8-3.457 2.8H25.84c-1.91 0-3.457-1.254-3.457-2.8 0 0-1.383-5.338-1.383-10.8 0-5.73 1.383-11.6 1.383-11.6 0-1.547 1.548-2.8 3.457-2.8z" mask="url(&quot;#3lhab&quot;)"/><path fill="#0c2042" fill-opacity=".05" d="M25.84 13.998h24.32c1.909 0 3.457 1.253 3.457 2.8 0 0 1.383 6.016 1.383 11.812 0 5.388-1.383 10.588-1.383 10.588 0 1.546-1.548 2.8-3.457 2.8H25.84c-1.91 0-3.457-1.254-3.457-2.8 0 0-1.383-5.338-1.383-10.8 0-5.73 1.383-11.6 1.383-11.6 0-1.547 1.548-2.8 3.457-2.8z"/></g><path fill="#1e96c8" d="M25.84 13.998h24.32c1.909 0 3.457 1.253 3.457 2.8 0 0 1.383 6.016 1.383 11.812 0 5.388-1.383 10.588-1.383 10.588 0 1.546-1.548 2.8-3.457 2.8H25.84c-1.91 0-3.457-1.254-3.457-2.8 0 0-1.383-5.338-1.383-10.8 0-5.73 1.383-11.6 1.383-11.6 0-1.547 1.548-2.8 3.457-2.8z"/><path fill="url(#3lhac)" d="M25.84 13.998h24.32c1.909 0 3.457 1.253 3.457 2.8 0 0 1.383 6.016 1.383 11.812 0 5.388-1.383 10.588-1.383 10.588 0 1.546-1.548 2.8-3.457 2.8H25.84c-1.91 0-3.457-1.254-3.457-2.8 0 0-1.383-5.338-1.383-10.8 0-5.73 1.383-11.6 1.383-11.6 0-1.547 1.548-2.8 3.457-2.8z"/></g><g><path fill="#fff" d="M30 27.632l16-6.634-3.128 14-4.442-3.515-2.59 2.579-1.99-4.954zm4.794 1.312l1.127 2.807.61-2.289 4.897-4.448z"/></g></g></svg>