<svg xmlns="http://www.w3.org/2000/svg" width="77" height="76" viewBox="0 0 77 76"><defs><mask id="aq56b" width="2" height="2" x="-1" y="-1"><path fill="#fff" d="M22 14h34v28H22z"/><path d="M26.84 13.998h24.32c1.909 0 3.457 1.253 3.457 2.8 0 0 1.383 6.016 1.383 11.812 0 5.388-1.383 10.588-1.383 10.588 0 1.546-1.548 2.8-3.457 2.8H26.84c-1.91 0-3.457-1.254-3.457-2.8 0 0-1.383-5.338-1.383-10.8 0-5.73 1.383-11.6 1.383-11.6 0-1.547 1.548-2.8 3.457-2.8z"/></mask><filter id="aq56a" width="124" height="128" x="-23" y="-31" filterUnits="userSpaceOnUse"><feOffset dy="10" in="SourceGraphic" result="FeOffset1075Out"/><feGaussianBlur in="FeOffset1075Out" result="FeGaussianBlur1076Out" stdDeviation="14 14"/></filter><linearGradient id="aq56c" x1="39" x2="39" y1="14" y2="42" gradientUnits="userSpaceOnUse"><stop offset="0" stop-color="#fff" stop-opacity=".36"/><stop offset="1" stop-color="#fff" stop-opacity="0"/></linearGradient></defs><g><g><g filter="url(#aq56a)"><path fill="none" d="M26.84 13.998h24.32c1.909 0 3.457 1.253 3.457 2.8 0 0 1.383 6.016 1.383 11.812 0 5.388-1.383 10.588-1.383 10.588 0 1.546-1.548 2.8-3.457 2.8H26.84c-1.91 0-3.457-1.254-3.457-2.8 0 0-1.383-5.338-1.383-10.8 0-5.73 1.383-11.6 1.383-11.6 0-1.547 1.548-2.8 3.457-2.8z" mask="url(&quot;#aq56b&quot;)"/><path fill="#0c2042" fill-opacity=".05" d="M26.84 13.998h24.32c1.909 0 3.457 1.253 3.457 2.8 0 0 1.383 6.016 1.383 11.812 0 5.388-1.383 10.588-1.383 10.588 0 1.546-1.548 2.8-3.457 2.8H26.84c-1.91 0-3.457-1.254-3.457-2.8 0 0-1.383-5.338-1.383-10.8 0-5.73 1.383-11.6 1.383-11.6 0-1.547 1.548-2.8 3.457-2.8z"/></g><path fill="#7e43b1" d="M26.84 13.998h24.32c1.909 0 3.457 1.253 3.457 2.8 0 0 1.383 6.016 1.383 11.812 0 5.388-1.383 10.588-1.383 10.588 0 1.546-1.548 2.8-3.457 2.8H26.84c-1.91 0-3.457-1.254-3.457-2.8 0 0-1.383-5.338-1.383-10.8 0-5.73 1.383-11.6 1.383-11.6 0-1.547 1.548-2.8 3.457-2.8z"/><path fill="url(#aq56c)" d="M26.84 13.998h24.32c1.909 0 3.457 1.253 3.457 2.8 0 0 1.383 6.016 1.383 11.812 0 5.388-1.383 10.588-1.383 10.588 0 1.546-1.548 2.8-3.457 2.8H26.84c-1.91 0-3.457-1.254-3.457-2.8 0 0-1.383-5.338-1.383-10.8 0-5.73 1.383-11.6 1.383-11.6 0-1.547 1.548-2.8 3.457-2.8z"/></g><g><path fill="#fff" d="M45.995 27.296c-.002-.05-.004-.099-.004-.141.04-3.17-2.776-6.04-6.026-6.148l-.04.001c-.006.001-.018.003-.038.003-.032 0-.072-.004-.115-.006-.05-.003-.109-.007-.167-.007-.518 0-.616.358-.629.572-.03.493.461.528.697.545.057.004.11.008.156.014 3.156.472 4.607 1.929 5.01 5.027.007.052.008.116.009.184.004.243.012.746.567.756l.018.001a.555.555 0 0 0 .411-.152c.173-.177.16-.438.151-.649zm-6.547-2.271c-.063.176-.055.33.022.454.114.187.332.242.53.273.718.113 1.087.5 1.161 1.217.034.336.266.57.563.57a.619.619 0 0 0 .067-.004c.358-.042.531-.298.515-.761.006-.483-.254-1.032-.695-1.47-.444-.438-.978-.685-1.464-.673-.184.004-.565.014-.7.394zm.454-1.074c.06.009.117.015.164.026 1.922.417 2.57 1.075 2.886 2.932.007.044.01.1.015.16.013.223.042.684.552.684.042 0 .088-.004.135-.01.475-.071.46-.494.453-.696-.002-.058-.004-.111 0-.147a.212.212 0 0 0 .003-.027c.017-1.974-1.71-3.784-3.849-4.033l-.138-.02c-.106-.018-.215-.036-.326-.036-.438 0-.555.3-.586.48a.54.54 0 0 0 .085.433c.145.194.4.227.606.254zm-3.518 3.808c-.29-.635-.196-1.048.313-1.385.29-.19.828-.546.79-1.229-.044-.773-1.797-3.102-2.536-3.366a1.48 1.48 0 0 0-.978-.003c-.85.277-1.459.767-1.763 1.412-.293.624-.28 1.357.039 2.119.921 2.203 2.217 4.122 3.85 5.708 1.6 1.55 3.565 2.822 5.842 3.777.206.085.421.132.578.167l.134.03a.193.193 0 0 0 .057.01h.018c1.07 0 2.357-.955 2.752-2.04.346-.951-.286-1.422-.794-1.8-.067-.051-.136-.102-.201-.153-.345-.27-.711-.519-1.066-.76-.073-.05-.147-.099-.22-.15-.455-.31-.863-.461-1.249-.461-.52 0-.972.28-1.346.83-.166.245-.367.364-.614.364-.147 0-.313-.04-.495-.121-1.466-.647-2.513-1.64-3.111-2.95z"/></g></g></svg>