<svg xmlns="http://www.w3.org/2000/svg" width="78" height="76" viewBox="0 0 78 76"><defs><mask id="2b89b" width="2" height="2" x="-1" y="-1"><path fill="#fff" d="M22 14h34v28H22z"/><path d="M26.84 13.998h24.32c1.909 0 3.457 1.253 3.457 2.8 0 0 1.383 6.016 1.383 11.812 0 5.388-1.383 10.588-1.383 10.588 0 1.546-1.548 2.8-3.457 2.8H26.84c-1.91 0-3.457-1.254-3.457-2.8 0 0-1.383-5.338-1.383-10.8 0-5.73 1.383-11.6 1.383-11.6 0-1.547 1.548-2.8 3.457-2.8z"/></mask><filter id="2b89a" width="124" height="128" x="-23" y="-31" filterUnits="userSpaceOnUse"><feOffset dy="10" in="SourceGraphic" result="FeOffset1116Out"/><feGaussianBlur in="FeOffset1116Out" result="FeGaussianBlur1117Out" stdDeviation="14 14"/></filter><linearGradient id="2b89c" x1="39" x2="39" y1="14" y2="42" gradientUnits="userSpaceOnUse"><stop offset="0" stop-color="#fff" stop-opacity=".36"/><stop offset="1" stop-color="#fff" stop-opacity="0"/></linearGradient></defs><g><g><g filter="url(#2b89a)"><path fill="none" d="M26.84 13.998h24.32c1.909 0 3.457 1.253 3.457 2.8 0 0 1.383 6.016 1.383 11.812 0 5.388-1.383 10.588-1.383 10.588 0 1.546-1.548 2.8-3.457 2.8H26.84c-1.91 0-3.457-1.254-3.457-2.8 0 0-1.383-5.338-1.383-10.8 0-5.73 1.383-11.6 1.383-11.6 0-1.547 1.548-2.8 3.457-2.8z" mask="url(&quot;#2b89b&quot;)"/><path fill="#0c2042" fill-opacity=".05" d="M26.84 13.998h24.32c1.909 0 3.457 1.253 3.457 2.8 0 0 1.383 6.016 1.383 11.812 0 5.388-1.383 10.588-1.383 10.588 0 1.546-1.548 2.8-3.457 2.8H26.84c-1.91 0-3.457-1.254-3.457-2.8 0 0-1.383-5.338-1.383-10.8 0-5.73 1.383-11.6 1.383-11.6 0-1.547 1.548-2.8 3.457-2.8z"/></g><path fill="#189d0e" d="M26.84 13.998h24.32c1.909 0 3.457 1.253 3.457 2.8 0 0 1.383 6.016 1.383 11.812 0 5.388-1.383 10.588-1.383 10.588 0 1.546-1.548 2.8-3.457 2.8H26.84c-1.91 0-3.457-1.254-3.457-2.8 0 0-1.383-5.338-1.383-10.8 0-5.73 1.383-11.6 1.383-11.6 0-1.547 1.548-2.8 3.457-2.8z"/><path fill="url(#2b89c)" d="M26.84 13.998h24.32c1.909 0 3.457 1.253 3.457 2.8 0 0 1.383 6.016 1.383 11.812 0 5.388-1.383 10.588-1.383 10.588 0 1.546-1.548 2.8-3.457 2.8H26.84c-1.91 0-3.457-1.254-3.457-2.8 0 0-1.383-5.338-1.383-10.8 0-5.73 1.383-11.6 1.383-11.6 0-1.547 1.548-2.8 3.457-2.8z"/></g><g><path fill="#fff" d="M46 27.998c0 3.845-3.155 7-7 7a6.96 6.96 0 0 1-3.585-.99l-3.415.99.99-3.415a6.951 6.951 0 0 1-.99-3.585c0-3.846 3.155-7 7-7s7 3.154 7 7zm-2.624 2.306l-1.302-1.302a.48.48 0 0 0-.652 0l-.326.325a.92.92 0 0 1-1.303 0l-2.151-2.123a.924.924 0 0 1 0-1.304l.326-.326a.458.458 0 0 0 0-.65l-1.303-1.303a.461.461 0 0 0-.652 0l-.325.325c-.364.365-.504 1.318-.251 2.416.509 2.216 3.148 4.775 5.412 5.212.681.13 1.74.169 2.202-.293l.325-.325a.461.461 0 0 0 0-.652z"/></g></g></svg>