<svg xmlns="http://www.w3.org/2000/svg" width="190" height="39" viewBox="0 0 190 39"><defs><clipPath id="knkqa"><path fill="#ff5238;" d="M6.678-.002h176.644c2.634 0 4.77 1.746 4.77 3.9 0 0 1.908 8.38 1.908 16.452 0 7.507-1.908 14.748-1.908 14.748 0 2.155-2.136 3.9-4.77 3.9H6.678c-2.634 0-4.77-1.745-4.77-3.9 0 0-1.908-7.434-1.908-15.044C0 12.073 1.908 3.897 1.908 3.897c0-2.153 2.136-3.899 4.77-3.899z"/></clipPath></defs><g><g><path fill="none" stroke="#ff5238" stroke-miterlimit="20" stroke-width="4" d="M6.678-.002h176.644c2.634 0 4.77 1.746 4.77 3.9 0 0 1.908 8.38 1.908 16.452 0 7.507-1.908 14.748-1.908 14.748 0 2.155-2.136 3.9-4.77 3.9H6.678c-2.634 0-4.77-1.745-4.77-3.9 0 0-1.908-7.434-1.908-15.044C0 12.073 1.908 3.897 1.908 3.897c0-2.153 2.136-3.899 4.77-3.899z" clip-path="url(&quot;#knkqa&quot;)"/></g></g></svg>