<svg xmlns="http://www.w3.org/2000/svg" width="14" height="14" viewBox="0 0 14 14"><g><g><path fill="#fff" d="M13.995 6.296c-.002-.05-.004-.099-.004-.141.04-3.17-2.776-6.04-6.026-6.148l-.04.001c-.006.001-.018.003-.038.003-.032 0-.072-.004-.115-.006-.05-.003-.109-.007-.167-.007-.518 0-.616.358-.629.572-.03.493.461.528.697.545.057.004.11.008.156.014 3.156.472 4.607 1.929 5.01 5.027.007.052.008.116.009.184.004.243.012.746.567.756l.018.001a.555.555 0 0 0 .411-.152c.173-.177.16-.438.151-.649zM7.448 4.025c-.063.176-.055.33.022.454.114.187.332.242.53.273.718.113 1.087.5 1.161 1.217.034.336.266.57.563.57a.619.619 0 0 0 .067-.004c.358-.042.531-.298.515-.761.006-.483-.254-1.032-.695-1.47-.444-.438-.978-.685-1.464-.673-.184.004-.565.014-.7.394zm.454-1.074c.06.009.117.015.164.026 1.922.417 2.57 1.075 2.886 2.932.007.044.01.1.015.16.013.223.042.684.552.684.042 0 .088-.004.135-.01.475-.071.46-.494.453-.696-.002-.058-.004-.111 0-.147a.212.212 0 0 0 .003-.027C12.127 3.9 10.4 2.09 8.26 1.84l-.138-.02c-.106-.018-.215-.036-.326-.036-.438 0-.555.3-.586.48a.54.54 0 0 0 .085.433c.145.194.4.227.606.254zM4.384 6.759c-.29-.635-.196-1.048.313-1.385.29-.19.828-.546.79-1.229C5.443 3.372 3.69 1.043 2.95.78a1.48 1.48 0 0 0-.978-.003c-.85.277-1.459.767-1.763 1.412-.293.624-.28 1.357.039 2.119.921 2.203 2.217 4.122 3.85 5.708 1.6 1.55 3.565 2.822 5.842 3.777.206.085.421.132.578.167l.134.03a.193.193 0 0 0 .057.01h.018c1.07 0 2.357-.955 2.752-2.04.346-.951-.286-1.422-.794-1.8-.067-.051-.136-.102-.201-.153-.345-.27-.711-.519-1.066-.76-.073-.05-.147-.099-.22-.15-.455-.31-.863-.461-1.249-.461-.52 0-.972.28-1.346.83-.166.245-.367.364-.614.364-.147 0-.313-.04-.495-.121-1.466-.647-2.513-1.64-3.111-2.95z"/></g></g></svg>