<svg xmlns="http://www.w3.org/2000/svg" width="14" height="14" viewBox="0 0 14 14"><g><g><path fill="#fff" d="M14 6.998c0 3.845-3.155 7-7 7a6.96 6.96 0 0 1-3.585-.99L0 13.997l.99-3.415A6.951 6.951 0 0 1 0 6.998c0-3.846 3.155-7 7-7s7 3.154 7 7zm-2.624 2.306l-1.302-1.302a.48.48 0 0 0-.652 0l-.326.325a.92.92 0 0 1-1.303 0L5.642 6.204a.924.924 0 0 1 0-1.304l.326-.326a.458.458 0 0 0 0-.65L4.665 2.62a.461.461 0 0 0-.652 0l-.325.325c-.364.365-.504 1.318-.251 2.416.509 2.216 3.148 4.775 5.412 5.212.681.13 1.74.169 2.202-.293l.325-.325a.461.461 0 0 0 0-.652z"/></g></g></svg>