<svg xmlns="http://www.w3.org/2000/svg" width="5" height="13" viewBox="0 0 5 13"><g><g><path fill="#b7b7c2" d="M3.79-.006c-.419 0-.776.132-1.074.398-.298.268-.484.627-.557 1.081-.073.444-.005.801.204 1.074.209.27.522.406.94.406.418 0 .782-.137 1.09-.406.308-.273.499-.63.572-1.074.073-.443.003-.801-.212-1.073-.214-.27-.535-.406-.964-.406zm-.628 3.89c-.407 0-.903.131-1.489.391A6.95 6.95 0 0 0-.004 5.347l.11.25C.67 5.32 1.16 5.197 1.579 5.23c-.188 1.586-.543 3.753-1.066 6.502-.083.389-.039.695.134.922.172.228.457.342.854.342.428 0 .93-.125 1.505-.376a5.934 5.934 0 0 0 1.63-1.07l-.11-.218c-.45.233-.956.339-1.52.317L4.18 5.132c.073-.389.021-.692-.156-.915-.178-.22-.465-.332-.863-.332z"/></g></g></svg>