<svg xmlns="http://www.w3.org/2000/svg" width="350" height="136" viewBox="0 0 350 136"><defs><mask id="xwllb" width="2" height="2" x="-1" y="-1"><path fill="#fff" d="M101 50h229v52H101z"/><path d="M120.776 50.005h200.987c4.549 0 8.237 3.88 8.237 8.666l-11.532 34.673c0 4.786-3.688 8.666-8.237 8.666H109.244c-4.55 0-8.237-3.88-8.237-8.666l11.532-34.673c0-4.785 3.688-8.666 8.237-8.666z"/></mask><filter id="xwlla" width="319" height="152" x="56" y="5" filterUnits="userSpaceOnUse"><feOffset dy="10" in="SourceGraphic" result="FeOffset1032Out"/><feGaussianBlur in="FeOffset1032Out" result="FeGaussianBlur1033Out" stdDeviation="14 14"/></filter><mask id="xwlld" width="2" height="2" x="-1" y="-1"><path fill="#fff" d="M19 13h231v53H19z"/><path d="M40.365 13.476h200.223a8.667 8.667 0 0 1 8.668 8.667l-12.135 34.67a8.668 8.668 0 0 1-8.668 8.668H28.23a8.668 8.668 0 0 1-8.668-8.668l12.135-34.67a8.667 8.667 0 0 1 8.668-8.667z"/></mask><filter id="xwllc" width="321" height="153" x="-26" y="-32" filterUnits="userSpaceOnUse"><feOffset dy="10" in="SourceGraphic" result="FeOffset1048Out"/><feGaussianBlur in="FeOffset1048Out" result="FeGaussianBlur1049Out" stdDeviation="14 14"/></filter></defs><g><g><g filter="url(#xwlla)"><path fill="none" d="M120.776 50.005h200.987c4.549 0 8.237 3.88 8.237 8.666l-11.532 34.673c0 4.786-3.688 8.666-8.237 8.666H109.244c-4.55 0-8.237-3.88-8.237-8.666l11.532-34.673c0-4.785 3.688-8.666 8.237-8.666z" mask="url(&quot;#xwllb&quot;)"/><path fill="#0c2042" fill-opacity=".05" d="M120.776 50.005h200.987c4.549 0 8.237 3.88 8.237 8.666l-11.532 34.673c0 4.786-3.688 8.666-8.237 8.666H109.244c-4.55 0-8.237-3.88-8.237-8.666l11.532-34.673c0-4.785 3.688-8.666 8.237-8.666z"/></g><path fill="#fff" d="M120.776 50.005h200.987c4.549 0 8.237 3.88 8.237 8.666l-11.532 34.673c0 4.786-3.688 8.666-8.237 8.666H109.244c-4.55 0-8.237-3.88-8.237-8.666l11.532-34.673c0-4.785 3.688-8.666 8.237-8.666z"/></g><g><g filter="url(#xwllc)"><path fill="none" d="M40.365 13.476h200.223a8.667 8.667 0 0 1 8.668 8.667l-12.135 34.67a8.668 8.668 0 0 1-8.668 8.668H28.23a8.668 8.668 0 0 1-8.668-8.668l12.135-34.67a8.667 8.667 0 0 1 8.668-8.667z" mask="url(&quot;#xwlld&quot;)"/><path fill="#0c2042" fill-opacity=".05" d="M40.365 13.476h200.223a8.667 8.667 0 0 1 8.668 8.667l-12.135 34.67a8.668 8.668 0 0 1-8.668 8.668H28.23a8.668 8.668 0 0 1-8.668-8.668l12.135-34.67a8.667 8.667 0 0 1 8.668-8.667z"/></g><path fill="#fff" d="M40.365 13.476h200.223a8.667 8.667 0 0 1 8.668 8.667l-12.135 34.67a8.668 8.668 0 0 1-8.668 8.668H28.23a8.668 8.668 0 0 1-8.668-8.668l12.135-34.67a8.667 8.667 0 0 1 8.668-8.667z"/></g></g></svg>